<?xml version="1.0" standalone="no"?>
<!DOCTYPE svg PUBLIC "-//W3C//DTD SVG 20010904//EN"
 "http://www.w3.org/TR/2001/REC-SVG-20010904/DTD/svg10.dtd">
<svg version="1.0" xmlns="http://www.w3.org/2000/svg"
 width="625.000000pt" height="137.000000pt" viewBox="0 0 625.000000 137.000000"
 preserveAspectRatio="xMidYMid meet">

<g transform="translate(0.000000,137.000000) scale(0.100000,-0.100000)"
fill="#000000" stroke="none">
<path d="M0 685 l0 -685 3125 0 3125 0 0 685 0 685 -3125 0 -3125 0 0 -685z
m2263 355 l37 0 0 -90 c0 -88 -1 -90 -23 -90 -20 0 -26 9 -40 60 -13 46 -23
63 -42 72 -38 17 -65 -12 -65 -71 0 -53 9 -69 93 -161 85 -93 111 -148 111
-235 0 -56 -5 -79 -24 -113 -35 -63 -78 -86 -143 -78 -29 4 -67 6 -84 6 l-33
-1 0 101 c0 98 1 101 22 98 17 -2 24 -14 33 -53 15 -68 30 -92 60 -99 51 -13
85 28 85 100 0 53 -21 92 -95 174 -74 83 -115 157 -115 210 0 59 20 112 56
148 32 32 37 34 82 28 26 -4 64 -6 85 -6z m2906 -4 c38 -20 76 -79 97 -151 26
-85 25 -306 0 -390 -34 -113 -84 -165 -159 -165 -116 0 -175 103 -184 320 -10
251 57 400 180 400 21 0 50 -6 66 -14z m456 1 l30 -2 0 -85 c0 -80 -1 -85 -22
-88 -18 -3 -24 5 -37 52 -24 83 -86 112 -117 55 -16 -31 -32 -263 -25 -367 12
-170 36 -233 85 -217 19 6 21 15 22 83 2 99 1 102 -23 122 -34 27 -14 40 63
40 l69 0 2 -110 c1 -60 2 -120 2 -132 1 -29 -41 -50 -111 -56 -70 -6 -96 2
-142 43 -63 57 -93 172 -85 329 9 162 54 276 132 329 21 14 38 17 77 12 28 -3
64 -6 80 -8z m-4827 -44 c6 -27 34 -167 63 -313 37 -189 57 -271 70 -286 11
-11 19 -28 19 -37 0 -25 -167 -25 -177 -1 -4 10 1 22 10 29 18 13 21 37 11 98
l-7 37 -57 0 -57 0 -11 -52 c-9 -46 -8 -55 10 -79 11 -15 17 -32 14 -38 -4 -6
-34 -11 -67 -11 -54 0 -59 2 -59 22 0 12 7 29 15 38 18 19 117 493 117 558 0
39 3 44 36 62 53 28 59 25 70 -27z m361 -133 l66 -175 3 144 c2 118 0 147 -13
161 -8 9 -15 24 -15 33 0 14 11 17 65 17 57 0 65 -2 65 -19 0 -10 -7 -24 -15
-31 -13 -11 -15 -60 -15 -332 l0 -319 -27 3 c-26 3 -32 15 -118 242 l-90 239
-3 -203 c-2 -168 0 -207 13 -226 29 -44 21 -54 -44 -54 -67 0 -80 10 -57 45
24 36 24 574 0 610 -24 36 -10 46 58 43 l61 -3 66 -175z m501 105 c0 -72 -1
-75 -24 -75 -19 0 -25 7 -30 35 -9 47 -30 65 -77 65 l-39 0 0 -131 c0 -129 0
-130 22 -127 15 2 25 13 32 36 7 24 14 32 32 32 24 0 24 -2 24 -95 0 -94 0
-95 -24 -95 -18 0 -26 7 -31 27 -7 29 -21 43 -42 43 -10 0 -13 -36 -13 -145
l0 -145 36 0 c52 0 70 14 89 70 14 43 21 51 38 48 20 -3 22 -10 25 -86 l3 -82
-166 0 c-155 0 -165 1 -165 19 0 10 7 24 15 31 13 11 15 57 15 300 0 243 -2
289 -15 300 -8 7 -15 21 -15 31 0 18 10 19 155 19 l155 0 0 -75z m340 -1 c0
-71 -1 -75 -21 -72 -14 2 -25 16 -34 42 -16 47 -28 56 -77 56 l-38 0 0 -130
c0 -124 1 -130 21 -130 13 0 25 11 35 35 9 23 21 35 34 35 19 0 20 -7 20 -95
0 -89 -1 -95 -20 -95 -13 0 -24 10 -31 27 -11 29 -26 43 -46 43 -10 0 -13 -36
-13 -145 l0 -145 40 0 c49 0 75 23 90 79 9 34 15 41 35 41 25 0 25 -1 25 -85
l0 -85 -159 0 c-88 0 -162 4 -165 8 -3 5 2 21 10 36 21 41 21 571 0 612 -8 15
-13 31 -10 36 3 4 72 8 155 8 l149 0 0 -76z m530 59 c0 -10 -7 -27 -15 -37
-11 -15 -15 -49 -15 -133 l0 -113 50 0 50 0 0 119 c0 93 -3 121 -15 131 -8 7
-15 21 -15 31 0 17 9 19 85 19 76 0 85 -2 85 -19 0 -10 -7 -24 -15 -31 -13
-11 -15 -57 -15 -300 0 -243 2 -289 15 -300 8 -7 15 -21 15 -31 0 -17 -9 -19
-85 -19 -76 0 -85 2 -85 19 0 10 7 24 15 31 12 10 15 40 15 151 l0 139 -50 0
-50 0 0 -133 c0 -102 3 -138 15 -153 8 -10 15 -27 15 -36 0 -16 -10 -18 -79
-18 -44 0 -82 4 -85 8 -3 5 2 21 10 36 22 44 21 576 -2 611 -9 13 -13 29 -9
35 3 5 41 10 86 10 69 0 79 -2 79 -17z m609 -3 c95 -48 144 -155 144 -315 1
-183 -42 -302 -123 -343 -37 -18 -60 -22 -142 -22 -98 0 -98 0 -98 25 0 14 5
25 10 25 6 0 10 107 10 300 0 193 -4 300 -10 300 -5 0 -10 11 -10 25 0 25 1
25 90 25 71 0 99 -4 129 -20z m491 -55 c0 -72 -1 -75 -23 -75 -19 0 -25 8 -35
44 -12 45 -27 56 -84 56 l-28 0 0 -131 c0 -129 0 -130 22 -127 15 2 25 13 32
36 7 24 14 32 32 32 24 0 24 -2 24 -95 0 -94 0 -95 -24 -95 -18 0 -26 7 -31
27 -7 29 -21 43 -42 43 -10 0 -13 -36 -13 -145 l0 -145 36 0 c52 0 70 14 89
70 14 43 21 51 38 48 20 -3 22 -10 25 -86 l3 -82 -166 0 c-155 0 -165 1 -165
19 0 10 7 24 15 31 13 11 15 57 15 300 0 243 -2 289 -15 300 -8 7 -15 21 -15
31 0 18 10 19 155 19 l155 0 0 -75z m200 50 c0 -14 -4 -25 -10 -25 -5 0 -10
-15 -9 -32 0 -30 55 -320 58 -308 1 3 15 74 31 159 l30 155 -20 21 c-39 42
-28 55 50 55 68 0 70 -1 70 -25 0 -14 -5 -25 -10 -25 -19 0 -30 -42 -85 -330
-71 -365 -62 -332 -88 -328 -20 3 -26 24 -83 314 -48 244 -66 317 -84 341 -12
17 -19 36 -16 42 4 6 40 11 87 11 78 0 79 0 79 -25z m618 11 c114 -60 131
-216 32 -300 -18 -14 -37 -26 -43 -26 -7 -1 2 -8 18 -17 94 -49 128 -138 90
-230 -37 -87 -89 -112 -232 -113 -92 0 -103 2 -103 18 0 9 7 26 15 36 22 30
22 578 0 596 -8 7 -15 21 -15 31 0 17 9 19 105 19 72 0 115 -5 133 -14z m307
4 c4 -6 0 -22 -9 -35 -14 -21 -16 -66 -16 -315 l0 -290 25 0 c34 0 72 39 80
84 6 29 12 36 31 36 23 0 24 -2 24 -85 l0 -85 -150 0 c-126 0 -152 2 -157 15
-3 9 2 24 11 34 14 15 16 54 16 309 0 188 -4 292 -10 292 -5 0 -10 11 -10 25
0 25 1 25 79 25 45 0 83 -5 86 -10z m945 -805 l0 -25 -2575 0 -2575 0 0 25 0
25 2575 0 2575 0 0 -25z"/>
<path d="M5076 981 c-25 -27 -39 -192 -34 -381 5 -155 15 -203 45 -214 13 -5
53 9 53 18 0 2 4 25 9 52 5 27 13 114 16 194 12 260 -26 401 -89 331z"/>
<path d="M712 705 c-7 -36 -15 -78 -18 -95 -6 -29 -6 -30 35 -30 23 0 41 5 41
11 0 25 -35 179 -41 179 -3 0 -11 -29 -17 -65z"/>
<path d="M3060 947 c0 -23 -1 -158 -3 -300 l-2 -258 25 6 c65 17 81 75 80 287
-1 214 -16 278 -72 297 -28 10 -28 9 -28 -32z"/>
<path d="M4350 856 c0 -75 3 -136 6 -136 10 0 49 23 57 34 17 26 28 92 22 137
-8 54 -28 84 -62 94 l-23 6 0 -135z"/>
<path d="M4350 531 c0 -78 2 -141 5 -141 3 0 21 6 40 14 26 11 36 23 44 53 28
99 -1 187 -66 207 l-23 7 0 -140z"/>
</g>
</svg>
