<svg id="svg" version="1.1" xmlns="http://www.w3.org/2000/svg" xmlns:xlink="http://www.w3.org/1999/xlink" width="400" height="398.33333333333337" viewBox="0, 0, 400,398.33333333333337"><g id="svgg"><path id="path0" d="M209.960 16.389 C 208.536 17.064,206.295 18.115,204.980 18.725 C 203.665 19.335,200.976 20.590,199.004 21.514 C 197.032 22.437,194.343 23.692,193.028 24.301 C 191.713 24.910,188.934 26.204,186.853 27.177 C 184.771 28.149,180.586 30.092,177.552 31.495 C 174.519 32.897,171.391 34.602,170.602 35.284 L 169.167 36.525 169.674 41.071 C 169.952 43.572,170.420 47.141,170.713 49.004 C 171.006 50.867,171.357 53.376,171.492 54.582 C 171.628 55.787,171.936 57.913,172.178 59.306 C 172.503 61.184,172.497 62.369,172.156 63.888 C 171.767 65.619,167.015 89.287,164.506 101.992 C 164.095 104.074,163.646 106.315,163.508 106.972 C 163.371 107.629,162.221 113.456,160.953 119.920 C 159.685 126.384,158.559 132.122,158.451 132.669 C 158.343 133.217,156.463 142.629,154.273 153.586 C 152.083 164.542,150.203 173.954,150.095 174.502 C 148.635 181.922,137.310 238.386,136.871 240.438 C 136.542 241.972,135.902 245.199,135.449 247.610 C 134.995 250.020,134.453 252.709,134.245 253.586 C 134.036 254.462,132.796 260.647,131.490 267.331 C 130.184 274.014,128.926 280.289,128.695 281.275 C 128.464 282.261,127.991 284.592,127.645 286.454 C 127.299 288.317,126.778 291.006,126.488 292.430 C 126.198 293.855,125.609 296.813,125.181 299.004 C 124.752 301.195,123.675 306.574,122.787 310.956 C 121.900 315.339,120.989 319.910,120.764 321.116 C 116.827 342.161,114.182 347.781,105.514 353.518 C 101.380 356.254,101.036 357.007,100.766 363.922 C 100.610 367.932,100.382 369.926,100.068 370.030 C 99.488 370.224,99.422 375.299,100.000 375.299 C 100.219 375.299,100.398 375.576,100.398 375.915 C 100.398 376.731,102.319 378.486,103.212 378.486 C 103.600 378.486,103.977 378.653,104.050 378.857 C 104.132 379.084,114.958 379.123,132.072 378.956 C 166.957 378.617,163.729 379.696,163.739 368.370 C 163.746 360.273,163.459 359.457,159.182 355.410 C 146.616 343.520,145.636 341.577,147.604 332.470 C 148.172 329.841,148.987 325.986,149.414 323.904 C 149.841 321.823,150.558 318.416,151.006 316.335 C 151.797 312.670,152.292 310.267,153.553 303.984 C 153.883 302.341,154.538 299.203,155.010 297.012 C 155.481 294.821,156.160 291.594,156.519 289.841 L 157.171 286.653 187.705 286.551 C 216.511 286.455,218.255 286.489,218.514 287.149 C 218.664 287.534,219.034 289.193,219.336 290.837 C 219.638 292.480,220.159 295.169,220.495 296.813 C 220.831 298.456,221.362 301.056,221.676 302.590 C 223.029 309.213,223.562 311.863,223.878 313.546 C 224.064 314.532,225.125 319.839,226.237 325.339 C 230.175 344.822,229.286 348.460,219.143 354.363 C 212.558 358.195,212.151 359.007,212.151 368.327 C 212.151 380.035,206.887 378.804,257.769 378.993 L 298.606 379.144 299.546 378.262 C 300.778 377.106,300.925 375.451,300.506 367.478 C 300.085 359.457,299.830 358.969,294.109 355.197 C 284.624 348.942,283.715 347.162,279.859 327.291 C 279.306 324.442,278.597 320.946,278.283 319.522 C 277.969 318.098,277.342 314.960,276.890 312.550 C 276.437 310.139,275.904 307.540,275.706 306.773 C 275.507 306.006,275.048 303.765,274.687 301.793 C 274.325 299.821,273.791 297.042,273.501 295.618 C 272.810 292.233,271.460 285.435,270.733 281.673 C 270.185 278.838,269.440 275.139,268.526 270.717 C 267.131 263.968,266.213 259.316,265.115 253.442 C 264.814 251.829,264.468 250.197,264.347 249.815 C 264.226 249.433,263.862 247.705,263.539 245.974 C 262.982 242.989,261.656 236.247,261.119 233.665 C 260.053 228.547,256.804 212.156,256.538 210.558 C 256.356 209.462,256.029 207.849,255.811 206.972 C 255.594 206.096,255.045 203.406,254.591 200.996 C 254.137 198.586,253.499 195.359,253.171 193.825 C 252.711 191.668,249.753 176.970,248.320 169.721 C 246.998 163.035,236.670 111.044,236.488 110.159 C 236.353 109.502,235.903 107.261,235.489 105.179 C 235.075 103.098,234.200 98.705,233.546 95.418 C 232.892 92.131,232.269 88.994,232.162 88.446 C 232.056 87.898,231.158 83.416,230.167 78.486 C 229.177 73.556,228.285 69.074,228.185 68.526 C 227.999 67.503,225.980 57.517,224.883 52.191 C 224.544 50.548,224.093 48.307,223.879 47.211 C 223.665 46.116,223.117 43.337,222.660 41.036 C 222.203 38.735,221.604 35.687,221.328 34.263 C 219.997 27.391,219.468 24.787,219.144 23.506 C 218.951 22.739,218.666 21.305,218.512 20.319 C 217.689 15.056,215.196 13.910,209.960 16.389 M189.833 143.625 C 190.142 145.159,190.764 148.297,191.214 150.598 C 191.665 152.898,192.310 156.125,192.647 157.769 C 192.985 159.412,193.613 162.550,194.042 164.741 C 194.471 166.932,195.099 170.070,195.437 171.713 C 196.189 175.368,197.462 181.707,198.197 185.458 C 198.791 188.490,200.085 194.974,200.980 199.402 C 201.290 200.936,201.918 204.074,202.375 206.375 C 202.832 208.675,203.459 211.813,203.769 213.347 C 204.079 214.880,204.703 217.973,205.155 220.219 C 205.606 222.465,206.348 226.140,206.803 228.386 C 207.258 230.632,207.862 233.725,208.145 235.259 C 208.909 239.402,211.060 250.017,211.749 253.045 C 212.080 254.501,212.351 255.980,212.351 256.332 C 212.351 256.968,164.688 257.384,164.057 256.753 C 163.937 256.632,164.001 255.870,164.199 255.060 C 164.554 253.614,164.838 252.248,166.539 243.825 C 167.003 241.524,167.620 238.476,167.909 237.052 C 168.198 235.627,168.721 232.957,169.070 231.117 C 169.419 229.277,169.804 227.460,169.925 227.077 C 170.046 226.695,170.399 225.063,170.709 223.450 C 171.323 220.255,172.655 213.660,173.515 209.562 C 173.814 208.137,174.442 205.090,174.910 202.789 C 175.378 200.488,176.005 197.440,176.304 196.016 C 176.603 194.592,177.231 191.544,177.699 189.243 C 178.167 186.942,178.794 183.894,179.093 182.470 C 179.392 181.046,180.019 177.998,180.487 175.697 C 180.955 173.396,181.579 170.349,181.873 168.924 C 182.166 167.500,182.779 164.497,183.235 162.251 C 183.691 160.005,184.437 156.330,184.892 154.084 C 185.348 151.838,185.968 148.835,186.270 147.410 C 186.571 145.986,187.071 143.566,187.381 142.032 C 187.690 140.498,188.095 138.884,188.282 138.446 C 188.648 137.584,188.546 137.241,189.833 143.625 " stroke="none" fill="#fbfbfb" fill-rule="evenodd"></path><path id="path1" d="M195.418 3.440 C 183.577 3.985,173.541 5.031,164.940 6.615 C 140.332 11.147,116.983 20.323,95.817 33.782 C 19.179 82.512,-14.041 176.418,14.818 262.749 C 15.917 266.036,17.054 269.263,17.344 269.920 C 17.635 270.578,18.361 272.371,18.957 273.904 C 20.451 277.743,24.477 286.508,26.187 289.641 C 31.171 298.777,32.820 301.605,36.152 306.725 C 50.935 329.448,69.662 348.353,92.459 363.565 C 96.219 366.074,99.433 368.127,99.599 368.127 C 99.766 368.127,99.980 366.021,100.075 363.446 C 100.177 360.682,100.460 358.374,100.766 357.811 C 101.449 356.555,104.380 353.386,104.860 353.386 C 105.067 353.386,105.492 353.162,105.804 352.888 C 106.116 352.615,107.145 351.763,108.089 350.996 C 112.701 347.251,115.804 341.703,117.670 333.865 C 118.390 330.839,119.744 324.108,121.269 315.978 C 121.613 314.138,121.993 312.326,122.112 311.952 C 122.230 311.578,122.592 309.856,122.915 308.126 C 123.546 304.742,124.835 298.210,125.696 294.024 C 125.989 292.600,126.617 289.462,127.092 287.052 C 127.566 284.641,128.194 281.504,128.486 280.080 C 128.778 278.655,129.406 275.518,129.880 273.108 C 130.355 270.697,130.983 267.560,131.275 266.135 C 131.567 264.711,132.195 261.574,132.669 259.163 C 133.144 256.753,133.771 253.616,134.064 252.191 C 134.762 248.791,136.178 241.586,136.872 237.904 C 137.176 236.291,137.517 234.678,137.630 234.319 C 137.743 233.959,138.121 232.141,138.469 230.279 C 139.422 225.194,140.345 220.547,141.833 213.347 C 142.746 208.925,143.491 205.226,144.040 202.390 C 144.703 198.960,146.037 192.230,146.803 188.446 C 147.092 187.022,147.719 183.884,148.198 181.474 C 148.677 179.064,149.308 175.926,149.601 174.502 C 149.894 173.078,150.521 169.940,150.996 167.530 C 151.471 165.120,152.098 161.982,152.390 160.558 C 152.683 159.133,153.292 156.086,153.745 153.785 C 155.034 147.234,156.174 141.486,156.789 138.446 C 157.099 136.912,157.528 134.761,157.742 133.665 C 158.120 131.736,158.817 128.287,159.997 122.510 C 161.211 116.573,161.800 113.635,162.355 110.757 C 162.995 107.435,164.293 100.880,165.155 96.614 C 165.465 95.080,166.092 91.942,166.549 89.641 C 167.006 87.341,167.634 84.203,167.944 82.669 C 169.506 74.939,170.241 71.263,170.733 68.725 C 171.030 67.191,171.465 65.040,171.699 63.944 C 172.000 62.539,172.001 61.131,171.705 59.163 C 171.474 57.629,171.028 54.492,170.716 52.191 C 170.403 49.890,169.978 47.022,169.772 45.817 C 169.566 44.612,169.269 41.983,169.112 39.974 L 168.827 36.323 170.040 35.137 C 170.707 34.485,172.208 33.501,173.376 32.951 C 175.416 31.990,179.138 30.250,185.060 27.490 C 186.594 26.775,189.283 25.520,191.036 24.702 C 198.067 21.418,200.695 20.196,202.789 19.238 C 203.994 18.687,206.683 17.414,208.765 16.410 C 214.478 13.653,217.234 14.081,218.343 17.899 C 218.757 19.322,221.148 30.793,222.129 36.056 C 222.414 37.590,223.033 40.727,223.503 43.028 C 223.973 45.329,224.590 48.466,224.874 50.000 C 225.891 55.484,226.728 59.584,227.110 60.956 C 227.323 61.723,227.661 63.337,227.861 64.542 C 228.189 66.525,228.825 69.783,230.463 77.888 C 231.165 81.363,232.348 87.300,233.480 93.028 C 233.956 95.438,234.581 98.576,234.870 100.000 C 235.158 101.424,235.785 104.562,236.264 106.972 C 236.743 109.382,237.370 112.520,237.658 113.944 C 237.947 115.369,238.574 118.506,239.053 120.916 C 239.532 123.327,240.159 126.464,240.448 127.888 C 240.736 129.313,241.349 132.361,241.810 134.661 C 242.271 136.962,242.901 140.100,243.211 141.633 C 243.846 144.776,245.248 151.881,246.003 155.777 C 247.371 162.840,247.865 165.256,248.200 166.534 C 248.402 167.301,248.746 169.004,248.966 170.319 C 249.185 171.633,249.640 174.054,249.976 175.697 C 252.139 186.259,252.950 190.262,253.411 192.629 C 254.322 197.317,255.482 203.173,255.976 205.578 C 256.268 207.002,256.896 210.139,257.371 212.550 C 257.845 214.960,258.473 218.098,258.765 219.522 C 259.057 220.946,259.685 224.084,260.159 226.494 C 260.634 228.904,261.261 232.042,261.554 233.466 C 262.033 235.803,262.747 239.405,264.356 247.610 C 264.885 250.307,265.681 254.238,266.534 258.367 C 267.450 262.801,268.195 266.499,268.781 269.522 C 269.120 271.275,269.627 273.875,269.907 275.299 C 270.187 276.723,270.720 279.502,271.092 281.474 C 271.464 283.446,271.928 285.687,272.125 286.454 C 272.501 287.924,273.474 292.733,274.341 297.410 C 274.805 299.911,276.064 306.200,276.734 309.363 C 277.307 312.063,279.414 322.703,279.891 325.299 C 283.623 345.613,285.058 348.713,293.212 354.064 C 299.737 358.346,300.797 359.893,300.797 365.138 L 300.797 368.554 301.693 368.076 C 320.105 358.266,345.706 334.394,360.813 312.948 C 366.977 304.197,378.884 283.492,378.884 281.524 C 378.884 281.407,379.415 280.182,380.063 278.803 C 384.356 269.664,389.230 254.905,391.812 243.227 C 409.961 161.142,375.691 78.523,304.781 33.412 C 300.235 30.520,285.422 22.311,284.749 22.311 C 284.632 22.311,282.803 21.501,280.686 20.512 C 256.417 9.172,221.735 2.228,195.418 3.440 M188.283 140.040 C 188.127 140.697,187.907 141.594,187.794 142.032 C 187.428 143.453,184.125 159.695,182.702 167.076 C 182.369 168.798,181.996 170.526,181.873 170.916 C 181.749 171.306,181.376 173.034,181.044 174.757 C 180.713 176.479,180.205 179.054,179.917 180.478 C 179.628 181.902,179.092 184.592,178.726 186.454 C 178.359 188.317,177.893 190.468,177.689 191.235 C 177.486 192.002,177.022 194.153,176.658 196.016 C 175.087 204.065,173.667 211.168,172.754 215.538 C 172.411 217.181,171.753 220.408,171.292 222.709 C 170.831 225.010,170.210 228.058,169.911 229.482 C 169.612 230.906,168.985 233.954,168.517 236.255 C 168.048 238.556,167.421 241.604,167.122 243.028 C 165.839 249.140,164.847 254.074,164.658 255.279 L 164.455 256.574 188.221 256.574 L 211.988 256.574 211.736 255.080 C 211.597 254.258,211.237 252.510,210.935 251.195 C 210.634 249.880,210.199 247.819,209.970 246.614 C 209.592 244.630,208.949 241.369,207.338 233.267 C 207.033 231.733,206.413 228.596,205.961 226.295 C 205.508 223.994,204.881 220.857,204.566 219.323 C 204.252 217.789,203.642 214.741,203.210 212.550 C 202.779 210.359,202.146 207.221,201.803 205.578 C 201.461 203.934,200.833 200.797,200.407 198.606 C 199.982 196.414,199.354 193.277,199.013 191.633 C 198.671 189.990,198.044 186.853,197.619 184.661 C 197.193 182.470,196.566 179.333,196.224 177.689 C 195.654 174.945,195.054 171.895,193.474 163.700 C 193.152 162.031,192.712 159.970,192.497 159.118 C 192.281 158.266,191.987 156.673,191.844 155.578 C 191.700 154.482,191.418 153.048,191.218 152.390 C 190.813 151.064,189.772 145.919,189.042 141.633 C 188.627 139.198,188.531 138.996,188.283 140.040 M157.074 289.143 C 156.828 290.403,156.363 292.689,156.041 294.223 C 154.462 301.746,153.662 305.621,153.165 308.167 C 152.658 310.764,152.101 313.407,150.144 322.510 C 149.720 324.482,149.119 327.351,148.809 328.884 C 148.499 330.418,148.039 332.659,147.787 333.865 C 146.419 340.395,148.599 345.322,155.535 351.379 C 163.916 358.698,164.343 359.529,164.343 368.526 C 164.343 379.885,165.712 379.277,140.068 379.299 C 118.921 379.317,119.828 379.106,127.689 382.174 C 149.482 390.680,170.577 395.125,193.018 395.940 C 201.156 396.235,213.381 395.924,219.522 395.264 C 225.474 394.625,233.158 393.617,233.449 393.437 C 233.595 393.347,235.317 393.003,237.276 392.673 C 249.194 390.664,273.081 383.273,279.209 379.699 C 279.653 379.440,269.103 379.297,248.008 379.276 C 208.177 379.237,211.837 380.301,211.628 368.693 C 211.456 359.195,212.186 357.793,219.491 353.580 C 227.984 348.681,229.529 343.972,226.927 330.923 C 225.219 322.358,225.250 322.510,224.269 317.729 C 223.819 315.538,223.209 312.490,222.912 310.956 C 222.615 309.422,221.987 306.285,221.517 303.984 C 221.047 301.683,220.432 298.546,220.151 297.012 C 219.869 295.478,219.448 293.506,219.214 292.629 C 218.980 291.753,218.668 290.095,218.520 288.944 L 218.252 286.853 187.887 286.853 L 157.522 286.853 157.074 289.143 " stroke="none" fill="#43146c" fill-rule="evenodd"></path><path id="path2" d="M183.865 2.250 C 182.112 2.332,180.319 2.561,179.880 2.759 C 179.442 2.956,176.663 3.331,173.705 3.592 C 170.747 3.853,168.058 4.207,167.729 4.378 C 167.400 4.549,165.966 4.820,164.542 4.979 C 163.118 5.138,161.773 5.399,161.554 5.560 C 161.335 5.720,159.587 6.088,157.669 6.376 C 155.752 6.665,154.183 7.029,154.183 7.184 C 154.183 7.340,153.247 7.591,152.102 7.743 C 150.957 7.895,149.836 8.162,149.612 8.336 C 149.387 8.510,148.576 8.769,147.809 8.912 C 146.030 9.243,141.023 10.700,140.239 11.116 C 139.910 11.290,138.700 11.673,137.550 11.967 C 136.399 12.261,135.458 12.627,135.458 12.780 C 135.458 12.933,134.786 13.184,133.964 13.338 C 133.142 13.491,132.291 13.749,132.072 13.910 C 131.567 14.281,128.187 15.309,127.789 15.212 C 127.625 15.172,127.490 15.319,127.490 15.538 C 127.490 15.757,127.293 15.936,127.052 15.936 C 126.811 15.936,126.050 16.190,125.359 16.499 C 124.669 16.809,122.938 17.564,121.514 18.177 C 120.090 18.790,118.835 19.407,118.725 19.548 C 118.616 19.689,117.836 20.030,116.993 20.305 C 116.150 20.579,114.985 21.053,114.404 21.356 C 113.822 21.659,113.123 21.909,112.849 21.910 C 112.575 21.911,112.351 22.074,112.351 22.272 C 112.351 22.622,110.168 23.550,109.726 23.388 C 109.605 23.343,109.341 23.601,109.140 23.960 C 108.939 24.319,108.282 24.736,107.678 24.888 C 107.075 25.039,106.490 25.283,106.378 25.430 C 106.267 25.577,105.189 26.221,103.984 26.861 C 102.779 27.501,101.703 28.132,101.594 28.263 C 101.484 28.395,100.946 28.721,100.398 28.989 C 99.851 29.257,99.051 29.702,98.621 29.977 C 98.191 30.253,96.520 31.330,94.907 32.371 C 93.293 33.411,91.802 34.263,91.592 34.263 C 91.382 34.263,91.107 34.532,90.981 34.861 C 90.855 35.189,90.572 35.458,90.352 35.458 C 90.132 35.458,88.717 36.357,87.207 37.455 C 85.697 38.553,84.462 39.359,84.462 39.247 C 84.462 39.135,84.134 39.358,83.732 39.741 C 83.330 40.125,81.153 41.873,78.894 43.625 C 76.635 45.378,74.230 47.325,73.549 47.951 C 72.868 48.576,71.773 49.427,71.116 49.842 C 70.458 50.256,70.061 50.595,70.233 50.596 C 70.405 50.597,69.933 51.135,69.184 51.793 C 68.436 52.450,67.593 52.988,67.311 52.988 C 67.030 52.988,66.895 53.084,67.012 53.201 C 67.129 53.318,65.959 54.618,64.412 56.089 C 61.912 58.466,59.999 60.422,52.888 67.869 C 51.848 68.959,50.996 69.996,50.996 70.174 C 50.996 70.352,50.189 71.304,49.203 72.290 C 48.217 73.276,47.407 74.222,47.403 74.392 C 47.400 74.562,46.951 75.123,46.407 75.639 C 45.863 76.155,45.418 76.747,45.418 76.953 C 45.418 77.160,44.944 77.769,44.364 78.306 C 43.784 78.843,43.458 79.283,43.639 79.283 C 43.820 79.283,43.398 79.792,42.701 80.414 C 42.004 81.036,41.434 81.726,41.434 81.947 C 41.434 82.168,41.079 82.779,40.645 83.306 C 39.415 84.797,39.354 84.881,37.247 88.043 C 36.154 89.684,35.035 91.266,34.761 91.558 C 34.487 91.850,34.263 92.345,34.263 92.658 C 34.263 92.971,34.095 93.227,33.890 93.227 C 33.685 93.227,33.291 93.855,33.013 94.622 C 32.736 95.388,32.379 96.016,32.220 96.016 C 32.061 96.016,31.682 96.509,31.377 97.112 C 30.640 98.571,29.728 100.152,29.482 100.398 C 29.240 100.641,28.344 102.259,26.837 105.179 C 26.214 106.384,25.614 107.460,25.502 107.570 C 25.084 107.979,21.514 115.398,21.514 115.857 C 21.514 116.120,21.354 116.335,21.159 116.335 C 20.963 116.335,20.681 116.821,20.532 117.416 C 20.383 118.011,19.915 119.257,19.493 120.183 C 19.071 121.110,18.725 121.981,18.725 122.118 C 18.725 122.255,18.456 122.637,18.127 122.965 C 17.799 123.294,17.524 123.953,17.516 124.431 C 17.509 124.908,17.156 126.016,16.733 126.892 C 16.310 127.769,15.957 128.800,15.950 129.183 C 15.942 129.567,15.770 129.880,15.566 129.880 C 15.363 129.880,14.976 130.867,14.706 132.072 C 14.437 133.277,14.081 134.263,13.916 134.263 C 13.751 134.263,13.495 134.980,13.347 135.857 C 13.199 136.733,12.947 137.450,12.787 137.450 C 12.627 137.450,12.265 138.617,11.981 140.044 C 11.698 141.470,11.322 142.726,11.146 142.834 C 10.970 142.943,10.701 143.775,10.547 144.683 C 10.394 145.590,10.040 146.889,9.760 147.569 C 9.481 148.249,9.125 149.746,8.971 150.896 C 8.817 152.046,8.540 153.080,8.357 153.193 C 8.174 153.306,7.901 154.385,7.750 155.589 C 7.600 156.794,7.336 157.866,7.164 157.972 C 6.992 158.079,6.629 160.048,6.356 162.350 C 6.083 164.651,5.724 166.534,5.557 166.534 C 5.390 166.534,5.126 168.282,4.970 170.418 C 4.814 172.555,4.542 174.484,4.365 174.706 C 2.889 176.558,2.892 222.970,4.369 224.900 C 4.610 225.216,5.148 229.705,5.288 232.570 C 5.301 232.844,5.435 233.068,5.586 233.068 C 5.737 233.068,6.083 234.951,6.356 237.252 C 6.629 239.553,7.001 241.528,7.183 241.641 C 7.365 241.753,7.637 242.828,7.787 244.030 C 7.937 245.232,8.187 246.215,8.342 246.215 C 8.572 246.215,9.483 250.583,9.651 252.490 C 9.675 252.764,9.828 252.988,9.992 252.988 C 10.155 252.988,10.414 253.750,10.568 254.681 C 10.721 255.613,10.983 256.554,11.148 256.773 C 11.314 256.992,11.676 258.157,11.952 259.363 C 12.229 260.568,12.595 261.733,12.766 261.952 C 12.936 262.171,13.202 263.023,13.355 263.845 C 13.509 264.666,13.765 265.339,13.925 265.339 C 14.085 265.339,14.437 266.325,14.706 267.530 C 14.976 268.735,15.363 269.721,15.566 269.721 C 15.770 269.721,15.936 270.000,15.936 270.341 C 15.936 270.681,16.275 271.712,16.688 272.631 C 17.101 273.551,17.564 274.885,17.716 275.598 C 17.867 276.310,18.157 276.892,18.358 276.892 C 18.560 276.892,18.725 277.082,18.725 277.313 C 18.725 277.834,20.061 280.978,21.120 282.947 C 21.556 283.758,21.912 284.699,21.912 285.039 C 21.912 285.379,22.092 285.657,22.311 285.657 C 22.530 285.657,22.676 285.792,22.635 285.956 C 22.554 286.286,25.152 291.713,25.544 292.032 C 25.679 292.141,25.915 292.634,26.069 293.127 C 26.223 293.621,26.496 294.024,26.677 294.024 C 26.857 294.024,27.125 294.503,27.272 295.088 C 27.419 295.673,27.887 296.594,28.312 297.134 C 28.736 297.674,29.084 298.360,29.084 298.659 C 29.084 298.958,29.242 299.203,29.436 299.203 C 29.629 299.203,29.893 299.517,30.022 299.900 C 30.345 300.857,31.770 303.271,32.180 303.554 C 32.364 303.681,32.751 304.368,33.039 305.080 C 33.327 305.792,33.720 306.375,33.913 306.375 C 34.105 306.375,34.263 306.649,34.263 306.985 C 34.263 307.320,34.532 307.698,34.861 307.824 C 35.189 307.950,35.458 308.217,35.458 308.418 C 35.458 308.818,37.368 311.855,38.121 312.652 C 38.381 312.927,38.701 313.493,38.834 313.910 C 38.966 314.326,39.336 314.768,39.657 314.891 C 39.977 315.014,40.239 315.389,40.239 315.725 C 40.239 316.060,40.406 316.335,40.611 316.335 C 40.815 316.335,41.087 316.648,41.215 317.032 C 41.418 317.638,42.500 319.021,44.800 321.614 C 45.140 321.997,45.418 322.450,45.418 322.620 C 45.418 322.791,45.911 323.492,46.514 324.178 C 47.117 324.864,48.416 326.369,49.402 327.521 C 50.388 328.674,51.773 330.226,52.478 330.972 C 53.184 331.717,54.229 332.897,54.801 333.594 C 56.470 335.626,66.172 345.352,67.672 346.495 C 68.425 347.070,69.528 348.049,70.122 348.671 C 70.716 349.292,71.331 349.801,71.489 349.801 C 71.647 349.801,72.470 350.473,73.318 351.295 C 74.166 352.117,75.093 352.968,75.378 353.188 C 75.663 353.407,76.524 354.087,77.291 354.699 C 78.058 355.310,79.097 356.117,79.600 356.491 C 80.103 356.865,81.032 357.647,81.665 358.227 C 82.297 358.808,82.891 359.207,82.984 359.114 C 83.077 359.021,83.380 359.218,83.657 359.552 C 83.935 359.886,84.309 360.159,84.490 360.159 C 84.671 360.159,85.262 360.569,85.802 361.070 C 86.342 361.570,87.293 362.242,87.914 362.563 C 88.535 362.884,89.187 363.371,89.362 363.645 C 89.538 363.919,89.941 364.143,90.259 364.143 C 90.577 364.143,90.837 364.311,90.837 364.515 C 90.837 364.719,91.194 365.000,91.631 365.139 C 92.068 365.277,92.651 365.615,92.926 365.889 C 93.201 366.163,94.323 366.904,95.418 367.537 C 96.514 368.169,97.500 368.785,97.610 368.905 C 98.085 369.427,99.537 370.052,99.758 369.830 C 100.130 369.458,100.045 368.127,99.648 368.127 C 98.950 368.127,85.509 358.914,80.560 355.043 C 62.853 341.195,48.217 325.270,36.152 306.725 C 32.820 301.605,31.171 298.777,26.187 289.641 C 24.477 286.508,20.451 277.743,18.957 273.904 C 18.361 272.371,17.635 270.578,17.344 269.920 C 13.368 260.923,8.236 240.531,6.215 225.697 C -7.833 122.593,62.518 25.490,164.940 6.614 C 203.522 -0.496,246.862 4.707,280.686 20.512 C 282.803 21.501,284.632 22.311,284.749 22.311 C 285.422 22.311,300.235 30.520,304.781 33.412 C 375.691 78.523,409.961 161.142,391.812 243.227 C 389.230 254.905,384.356 269.664,380.063 278.803 C 379.415 280.182,378.884 281.407,378.884 281.524 C 378.884 283.492,366.977 304.197,360.813 312.948 C 345.706 334.394,320.105 358.266,301.693 368.076 C 301.127 368.378,300.797 368.924,300.797 369.558 L 300.797 370.563 302.092 369.843 C 302.804 369.447,303.476 369.032,303.586 368.921 C 304.103 368.394,307.201 366.534,307.561 366.534 C 307.785 366.534,307.968 366.367,307.968 366.162 C 307.968 365.958,308.305 365.684,308.718 365.553 C 309.130 365.422,309.892 364.965,310.411 364.537 C 311.721 363.458,312.039 363.232,313.214 362.550 C 313.780 362.221,314.758 361.552,315.388 361.064 C 316.018 360.575,317.520 359.469,318.725 358.605 C 321.116 356.893,322.518 355.767,324.361 354.084 C 325.020 353.481,325.680 352.985,325.827 352.981 C 325.975 352.978,326.922 352.216,327.931 351.288 C 328.941 350.361,330.734 348.797,331.915 347.813 C 335.378 344.930,350.199 329.900,350.199 329.271 C 350.199 329.149,350.812 328.384,351.561 327.572 C 352.310 326.760,353.335 325.558,353.838 324.900 C 354.341 324.243,354.983 323.562,355.265 323.387 C 355.546 323.211,355.777 322.898,355.777 322.689 C 355.777 322.481,356.091 321.965,356.474 321.543 C 357.286 320.648,357.580 320.276,359.175 318.127 C 359.826 317.251,360.493 316.474,360.657 316.401 C 360.822 316.328,360.956 316.059,360.957 315.803 C 360.957 315.548,361.360 314.862,361.853 314.280 C 362.346 313.698,362.970 312.891,363.240 312.487 C 365.323 309.369,365.737 308.684,365.737 308.349 C 365.737 308.139,365.907 307.968,366.114 307.968 C 366.465 307.968,366.943 307.237,368.199 304.781 C 368.480 304.233,368.855 303.679,369.034 303.551 C 369.358 303.318,369.646 302.821,371.896 298.617 C 372.544 297.406,373.197 296.414,373.347 296.414 C 373.496 296.414,373.742 295.923,373.893 295.323 C 374.043 294.722,374.301 294.140,374.466 294.028 C 374.631 293.916,375.940 291.404,377.375 288.446 C 381.495 279.955,382.402 277.964,382.688 276.793 C 382.835 276.190,383.115 275.697,383.310 275.697 C 383.505 275.697,383.665 275.418,383.665 275.078 C 383.665 274.737,384.004 273.706,384.417 272.787 C 384.830 271.868,385.293 270.533,385.445 269.821 C 385.596 269.109,385.866 268.526,386.043 268.526 C 386.220 268.526,386.482 267.906,386.624 267.148 C 386.766 266.391,387.140 265.275,387.454 264.669 C 387.768 264.063,388.141 262.800,388.281 261.863 C 388.422 260.926,388.676 260.159,388.846 260.159 C 389.015 260.159,389.280 259.487,389.434 258.665 C 389.587 257.844,389.849 256.992,390.016 256.773 C 390.183 256.554,390.552 255.209,390.837 253.785 C 391.121 252.361,391.490 251.016,391.656 250.797 C 391.822 250.578,392.090 249.505,392.253 248.413 C 392.416 247.321,392.769 245.887,393.039 245.226 C 393.309 244.565,393.658 242.948,393.815 241.633 C 393.972 240.319,394.239 239.064,394.408 238.845 C 394.577 238.625,394.835 237.460,394.983 236.255 C 395.130 235.050,395.500 232.809,395.805 231.275 C 396.110 229.741,396.484 226.783,396.636 224.701 C 396.788 222.620,397.114 220.665,397.360 220.357 C 397.997 219.562,397.995 180.035,397.358 179.244 C 397.110 178.937,396.779 176.892,396.623 174.701 C 396.467 172.510,396.173 169.910,395.971 168.924 C 395.768 167.938,395.414 165.876,395.183 164.343 C 394.952 162.809,394.614 161.195,394.433 160.757 C 394.251 160.319,393.800 158.436,393.429 156.574 C 393.059 154.711,392.559 152.201,392.319 150.996 C 392.079 149.791,391.768 148.715,391.626 148.606 C 391.485 148.496,391.133 147.241,390.844 145.817 C 390.555 144.392,390.187 143.048,390.026 142.829 C 389.865 142.610,389.602 141.803,389.442 141.036 C 389.282 140.269,389.012 139.462,388.843 139.243 C 388.674 139.024,388.307 137.814,388.029 136.554 C 387.750 135.294,387.392 134.263,387.232 134.263 C 387.072 134.263,386.817 133.600,386.665 132.789 C 386.513 131.979,386.134 130.953,385.824 130.509 C 385.513 130.066,385.259 129.464,385.259 129.172 C 385.259 128.693,384.734 127.386,383.039 123.645 C 382.726 122.954,382.464 122.237,382.457 122.051 C 382.449 121.865,382.097 120.996,381.673 120.120 C 381.250 119.243,380.897 118.302,380.890 118.028 C 380.883 117.754,380.726 117.530,380.542 117.530 C 380.358 117.530,379.963 116.768,379.666 115.837 C 379.368 114.905,378.741 113.516,378.273 112.749 C 377.806 111.982,376.542 109.562,375.464 107.371 C 374.387 105.179,373.401 103.297,373.273 103.187 C 373.049 102.996,371.014 99.404,369.830 97.112 C 369.519 96.509,369.138 96.016,368.982 96.016 C 368.827 96.016,368.485 95.523,368.222 94.920 C 367.959 94.318,367.384 93.287,366.944 92.629 C 366.504 91.972,365.934 91.031,365.677 90.538 C 365.421 90.045,365.060 89.641,364.876 89.641 C 364.692 89.641,364.542 89.450,364.542 89.216 C 364.542 88.983,364.094 88.204,363.546 87.486 C 362.998 86.767,362.550 85.943,362.550 85.653 C 362.550 85.363,362.438 85.238,362.302 85.374 C 362.166 85.510,361.387 84.639,360.572 83.438 C 359.757 82.237,358.703 80.810,358.230 80.266 C 357.757 79.722,357.371 79.105,357.371 78.895 C 357.371 78.686,357.024 78.329,356.601 78.102 C 356.177 77.875,355.715 77.326,355.574 76.880 C 355.432 76.435,354.927 75.655,354.451 75.148 C 352.026 72.563,350.199 70.428,350.199 70.178 C 350.199 70.024,349.885 69.622,349.502 69.285 C 349.119 68.948,347.467 67.189,345.833 65.377 C 342.731 61.937,336.271 55.529,332.891 52.539 C 331.807 51.581,330.624 50.528,330.261 50.199 C 329.898 49.871,328.813 48.942,327.849 48.135 C 326.884 47.329,325.444 46.118,324.649 45.446 C 323.853 44.773,323.001 44.223,322.756 44.223 C 322.511 44.223,322.311 44.074,322.311 43.892 C 322.311 43.710,321.459 42.955,320.418 42.213 C 319.377 41.472,318.308 40.679,318.042 40.452 C 317.175 39.714,316.562 39.262,314.841 38.093 C 313.909 37.461,313.147 36.789,313.147 36.599 C 313.147 36.410,313.013 36.293,312.849 36.340 C 312.537 36.428,310.705 35.516,310.359 35.100 C 310.044 34.722,307.625 33.068,307.388 33.068 C 307.270 33.068,306.321 32.485,305.280 31.773 C 302.779 30.063,301.989 29.572,300.797 28.989 C 300.249 28.721,299.711 28.409,299.602 28.294 C 299.492 28.180,298.865 27.818,298.207 27.490 C 297.550 27.162,296.922 26.804,296.813 26.694 C 296.703 26.584,295.000 25.662,293.028 24.644 C 291.056 23.627,288.560 22.326,287.483 21.752 C 286.405 21.178,284.836 20.503,283.997 20.252 C 283.157 20.000,282.470 19.643,282.470 19.459 C 282.470 19.274,282.280 19.124,282.047 19.124 C 281.814 19.124,280.604 18.661,279.358 18.095 C 278.111 17.530,276.643 16.883,276.096 16.659 C 275.548 16.434,274.562 16.014,273.904 15.724 C 273.247 15.434,271.992 14.967,271.116 14.687 C 270.239 14.406,269.343 14.055,269.124 13.907 C 268.904 13.759,268.098 13.507,267.331 13.347 C 266.564 13.186,265.757 12.915,265.538 12.744 C 265.319 12.573,264.333 12.204,263.347 11.924 C 262.361 11.643,261.375 11.282,261.155 11.121 C 260.936 10.960,260.040 10.699,259.163 10.541 C 258.287 10.384,257.390 10.118,257.171 9.951 C 256.952 9.785,255.697 9.430,254.382 9.163 C 253.068 8.897,251.808 8.530,251.584 8.349 C 251.359 8.168,250.239 7.895,249.094 7.743 C 247.949 7.591,247.012 7.337,247.012 7.178 C 247.012 7.019,245.398 6.657,243.426 6.375 C 241.454 6.092,239.841 5.723,239.841 5.554 C 239.841 5.385,238.451 5.121,236.753 4.966 C 235.055 4.812,233.486 4.544,233.267 4.371 C 233.048 4.197,230.359 3.832,227.291 3.558 C 224.223 3.285,221.478 2.879,221.190 2.656 C 220.674 2.256,190.683 1.930,183.865 2.250 M117.928 379.573 C 118.257 379.698,118.616 379.908,118.725 380.040 C 118.936 380.293,121.627 381.459,125.896 383.148 C 127.321 383.711,129.024 384.403,129.681 384.686 C 133.056 386.137,133.798 386.393,135.359 386.647 C 136.290 386.799,137.052 387.072,137.052 387.254 C 137.052 387.437,137.634 387.711,138.347 387.863 C 139.059 388.015,139.821 388.279,140.040 388.449 C 140.259 388.619,141.503 388.977,142.805 389.244 C 144.107 389.511,145.451 389.869,145.793 390.041 C 146.808 390.549,152.641 392.027,154.681 392.292 C 155.722 392.428,156.574 392.674,156.574 392.839 C 156.574 393.155,159.187 393.661,166.135 394.694 C 168.436 395.035,170.677 395.462,171.116 395.643 C 171.885 395.959,176.164 396.469,184.064 397.186 C 188.987 397.633,212.251 397.630,217.131 397.182 C 222.762 396.666,229.599 395.805,230.279 395.529 C 230.608 395.395,232.400 395.092,234.263 394.857 C 238.314 394.345,238.727 394.271,239.243 393.963 C 239.462 393.832,240.669 393.600,241.926 393.448 C 243.182 393.296,244.301 393.026,244.411 392.847 C 244.521 392.669,245.644 392.395,246.907 392.239 C 248.170 392.082,249.759 391.723,250.439 391.440 C 251.119 391.158,252.463 390.796,253.427 390.637 C 254.391 390.478,255.359 390.209,255.578 390.038 C 255.797 389.867,257.004 389.517,258.260 389.259 C 259.516 389.002,260.638 388.639,260.752 388.454 C 260.867 388.269,261.677 387.996,262.552 387.848 C 263.427 387.700,264.143 387.440,264.143 387.270 C 264.143 387.100,265.219 386.733,266.534 386.454 C 267.849 386.175,268.924 385.792,268.924 385.603 C 268.924 385.414,269.360 385.259,269.892 385.259 C 270.424 385.259,271.096 385.033,271.386 384.756 C 271.675 384.480,272.898 383.922,274.104 383.518 C 278.331 382.099,278.884 381.874,278.884 381.576 C 278.884 381.410,279.109 381.273,279.382 381.271 C 279.656 381.269,280.777 380.816,281.873 380.264 L 283.865 379.261 281.673 379.410 C 280.173 379.512,277.912 380.221,274.502 381.658 C 263.358 386.354,248.263 390.821,237.276 392.673 C 235.317 393.003,233.595 393.347,233.449 393.437 C 233.303 393.527,230.961 393.884,228.245 394.229 C 192.452 398.785,161.026 395.042,127.938 382.282 C 125.884 381.490,123.515 380.491,122.675 380.062 C 121.744 379.587,120.402 379.295,119.239 379.314 C 118.189 379.332,117.600 379.448,117.928 379.573 " stroke="none" fill="#2c548c" fill-rule="evenodd"></path><path id="path3" d="M215.571 14.841 C 215.662 14.895,216.275 15.388,216.932 15.936 L 218.127 16.932 217.162 15.837 C 216.630 15.234,216.018 14.741,215.800 14.741 C 215.583 14.741,215.480 14.786,215.571 14.841 M221.183 32.669 C 221.204 33.705,221.831 35.405,221.845 34.462 C 221.851 34.024,221.702 33.307,221.514 32.869 C 221.304 32.380,221.176 32.303,221.183 32.669 M169.814 45.817 C 169.814 46.584,169.896 46.897,169.996 46.514 C 170.096 46.130,170.096 45.503,169.996 45.120 C 169.896 44.736,169.814 45.050,169.814 45.817 M224.148 47.610 C 224.475 49.074,224.703 49.392,224.695 48.373 C 224.692 47.953,224.507 47.341,224.285 47.012 C 223.989 46.576,223.952 46.737,224.148 47.610 M226.936 61.554 C 227.264 63.019,227.492 63.337,227.484 62.317 C 227.481 61.897,227.296 61.285,227.073 60.956 C 226.778 60.520,226.741 60.681,226.936 61.554 M171.165 65.952 C 171.028 66.308,170.932 66.898,170.951 67.264 C 170.969 67.629,171.143 67.399,171.336 66.753 C 171.711 65.496,171.579 64.873,171.165 65.952 M187.704 140.904 C 187.674 141.379,187.546 142.096,187.420 142.497 C 187.203 143.188,187.215 143.189,187.646 142.518 C 187.896 142.129,188.023 141.412,187.929 140.925 C 187.758 140.041,187.758 140.041,187.704 140.904 M189.311 143.426 C 189.331 144.461,189.958 146.162,189.972 145.219 C 189.979 144.781,189.830 144.064,189.641 143.625 C 189.432 143.137,189.304 143.060,189.311 143.426 M192.275 158.367 C 192.603 159.831,192.831 160.149,192.823 159.130 C 192.819 158.710,192.635 158.098,192.412 157.769 C 192.117 157.332,192.080 157.494,192.275 158.367 M195.078 172.510 C 195.393 174.228,195.620 174.552,195.611 173.274 C 195.608 172.744,195.429 172.042,195.214 171.713 C 194.938 171.293,194.898 171.529,195.078 172.510 M180.532 175.963 C 180.503 176.439,180.375 177.156,180.249 177.557 C 180.032 178.248,180.044 178.249,180.474 177.578 C 180.724 177.188,180.852 176.471,180.758 175.985 C 180.587 175.100,180.587 175.100,180.532 175.963 M197.871 186.255 C 198.004 187.131,198.180 187.923,198.260 188.015 C 198.562 188.357,198.336 186.223,197.989 185.458 C 197.738 184.903,197.702 185.144,197.871 186.255 M200.655 200.398 C 200.971 202.117,201.197 202.441,201.189 201.162 C 201.186 200.632,201.007 199.930,200.791 199.602 C 200.516 199.181,200.475 199.417,200.655 200.398 M173.562 210.044 C 173.428 210.546,173.333 211.315,173.352 211.753 C 173.371 212.191,173.551 211.850,173.751 210.996 C 174.140 209.340,173.974 208.506,173.562 210.044 M169.377 230.545 C 169.347 231.020,169.220 231.737,169.093 232.139 C 168.876 232.830,168.888 232.831,169.319 232.160 C 169.569 231.770,169.697 231.053,169.602 230.566 C 169.431 229.682,169.431 229.682,169.377 230.545 M209.026 242.032 C 209.160 242.908,209.335 243.700,209.415 243.792 C 209.717 244.134,209.491 242.000,209.145 241.235 C 208.893 240.680,208.857 240.921,209.026 242.032 M265.008 251.992 C 265.002 252.430,265.150 253.147,265.339 253.586 C 265.775 254.601,265.775 253.553,265.339 252.191 C 265.082 251.391,265.017 251.351,265.008 251.992 M156.829 288.928 C 156.695 289.430,156.600 290.199,156.619 290.637 C 156.638 291.076,156.818 290.735,157.018 289.880 C 157.407 288.225,157.241 287.391,156.829 288.928 M218.793 290.837 C 218.813 291.872,219.440 293.572,219.454 292.629 C 219.461 292.191,219.312 291.474,219.124 291.036 C 218.914 290.548,218.786 290.471,218.793 290.837 M276.163 307.968 C 276.184 309.003,276.811 310.704,276.825 309.761 C 276.831 309.323,276.682 308.606,276.494 308.167 C 276.284 307.679,276.156 307.602,276.163 307.968 M223.114 312.583 C 223.117 313.003,223.302 313.616,223.524 313.944 C 223.820 314.381,223.856 314.219,223.661 313.347 C 223.334 311.882,223.106 311.564,223.114 312.583 M278.952 321.912 C 278.972 322.948,279.600 324.648,279.614 323.705 C 279.620 323.267,279.471 322.550,279.283 322.112 C 279.073 321.623,278.945 321.546,278.952 321.912 M147.131 337.849 C 147.131 339.054,147.206 339.547,147.297 338.944 C 147.389 338.342,147.389 337.356,147.297 336.753 C 147.206 336.150,147.131 336.643,147.131 337.849 M150.598 346.738 C 150.598 346.807,151.180 347.389,151.892 348.033 L 153.187 349.203 152.017 347.908 C 150.926 346.701,150.598 346.430,150.598 346.738 M110.931 348.307 L 109.761 349.602 111.056 348.431 C 112.263 347.341,112.534 347.012,112.226 347.012 C 112.157 347.012,111.575 347.595,110.931 348.307 M223.883 350.498 L 222.510 351.992 224.004 350.619 C 225.395 349.341,225.681 349.004,225.377 349.004 C 225.310 349.004,224.638 349.676,223.883 350.498 M286.853 349.129 C 286.853 349.197,287.435 349.780,288.147 350.423 L 289.442 351.594 288.272 350.299 C 287.181 349.092,286.853 348.821,286.853 349.129 M159.562 355.378 C 160.641 356.474,161.613 357.371,161.723 357.371 C 161.833 357.371,161.039 356.474,159.960 355.378 C 158.881 354.283,157.908 353.386,157.799 353.386 C 157.689 353.386,158.483 354.283,159.562 355.378 M214.321 357.271 L 212.948 358.765 214.442 357.392 C 215.833 356.114,216.119 355.777,215.815 355.777 C 215.749 355.777,215.076 356.449,214.321 357.271 M211.942 360.783 C 211.729 361.345,211.589 364.796,211.632 368.452 L 211.710 375.100 211.931 367.928 C 212.052 363.984,212.296 360.533,212.474 360.259 C 212.651 359.985,212.691 359.761,212.563 359.761 C 212.436 359.761,212.156 360.221,211.942 360.783 M100.152 364.741 C 100.153 367.371,100.217 368.394,100.295 367.016 C 100.373 365.638,100.373 363.487,100.294 362.235 C 100.215 360.984,100.151 362.112,100.152 364.741 M300.540 364.741 C 300.539 366.713,300.606 367.570,300.690 366.645 C 300.773 365.721,300.774 364.107,300.692 363.060 C 300.609 362.012,300.541 362.769,300.540 364.741 M164.301 368.327 C 164.301 371.394,164.364 372.597,164.440 370.999 C 164.515 369.400,164.515 366.890,164.438 365.421 C 164.362 363.951,164.300 365.259,164.301 368.327 M129.809 379.183 C 135.357 379.246,144.321 379.245,149.729 379.183 C 155.137 379.120,150.598 379.069,139.641 379.069 C 128.685 379.069,124.260 379.121,129.809 379.183 M232.171 379.183 C 241.210 379.243,256.001 379.243,265.040 379.183 C 274.079 379.123,266.683 379.075,248.606 379.075 C 230.528 379.075,223.132 379.123,232.171 379.183 " stroke="none" fill="#896aa1" fill-rule="evenodd"></path><path id="path4" d="M213.451 15.023 C 213.946 15.118,214.664 15.114,215.044 15.015 C 215.425 14.915,215.020 14.837,214.143 14.842 C 213.267 14.846,212.955 14.928,213.451 15.023 M206.375 17.729 C 205.827 18.042,205.558 18.298,205.777 18.298 C 205.996 18.298,206.624 18.042,207.171 17.729 C 207.719 17.416,207.988 17.160,207.769 17.160 C 207.550 17.160,206.922 17.416,206.375 17.729 M200.398 20.518 C 199.851 20.831,199.582 21.087,199.801 21.087 C 200.020 21.087,200.647 20.831,201.195 20.518 C 201.743 20.205,202.012 19.949,201.793 19.949 C 201.574 19.949,200.946 20.205,200.398 20.518 M194.422 23.307 C 193.875 23.620,193.606 23.876,193.825 23.876 C 194.044 23.876,194.671 23.620,195.219 23.307 C 195.767 22.994,196.036 22.737,195.817 22.737 C 195.598 22.737,194.970 22.994,194.422 23.307 M188.446 26.096 C 187.898 26.409,187.629 26.665,187.849 26.665 C 188.068 26.665,188.695 26.409,189.243 26.096 C 189.791 25.782,190.060 25.526,189.841 25.526 C 189.622 25.526,188.994 25.782,188.446 26.096 M219.988 27.888 C 220.008 28.924,220.636 30.624,220.649 29.681 C 220.656 29.243,220.507 28.526,220.319 28.088 C 220.109 27.599,219.981 27.522,219.988 27.888 M182.470 28.884 C 181.922 29.198,181.653 29.454,181.873 29.454 C 182.092 29.454,182.719 29.198,183.267 28.884 C 183.815 28.571,184.084 28.315,183.865 28.315 C 183.645 28.315,183.018 28.571,182.470 28.884 M176.494 31.673 C 175.946 31.986,175.677 32.243,175.896 32.243 C 176.116 32.243,176.743 31.986,177.291 31.673 C 177.839 31.360,178.108 31.104,177.888 31.104 C 177.669 31.104,177.042 31.360,176.494 31.673 M170.605 34.960 C 169.652 35.891,169.636 35.937,170.499 35.265 C 172.199 33.940,172.280 33.865,171.998 33.865 C 171.848 33.865,171.221 34.358,170.605 34.960 M221.582 35.657 C 221.575 36.096,221.724 36.813,221.912 37.251 C 222.349 38.266,222.349 37.219,221.912 35.857 C 221.656 35.056,221.591 35.017,221.582 35.657 M169.415 41.036 C 169.415 41.803,169.497 42.117,169.597 41.733 C 169.698 41.350,169.698 40.722,169.597 40.339 C 169.497 39.955,169.415 40.269,169.415 41.036 M171.009 52.590 C 171.009 53.357,171.091 53.670,171.191 53.287 C 171.291 52.903,171.291 52.276,171.191 51.892 C 171.091 51.509,171.009 51.823,171.009 52.590 M172.220 61.753 C 172.220 62.739,172.298 63.142,172.393 62.649 C 172.488 62.156,172.488 61.350,172.393 60.857 C 172.298 60.364,172.220 60.767,172.220 61.753 M228.548 70.717 C 228.682 71.594,228.857 72.385,228.937 72.477 C 229.239 72.819,229.013 70.685,228.667 69.920 C 228.415 69.365,228.379 69.606,228.548 70.717 M158.216 132.072 C 158.183 132.510,158.064 133.317,157.951 133.865 L 157.746 134.861 158.173 133.883 C 158.408 133.346,158.527 132.539,158.438 132.090 C 158.280 131.296,158.274 131.295,158.216 132.072 M188.113 138.862 C 187.445 140.327,187.572 140.639,188.294 139.307 C 188.631 138.685,188.832 138.102,188.741 138.011 C 188.650 137.920,188.367 138.303,188.113 138.862 M189.102 141.434 C 189.417 143.153,189.643 143.477,189.635 142.198 C 189.632 141.668,189.453 140.966,189.237 140.637 C 188.962 140.217,188.922 140.453,189.102 141.434 M190.444 148.041 C 190.448 148.680,190.622 149.472,190.831 149.801 C 191.091 150.208,191.135 149.890,190.968 148.805 C 190.666 146.835,190.436 146.500,190.444 148.041 M183.914 158.382 C 183.777 158.738,183.684 159.418,183.706 159.893 C 183.732 160.439,183.867 160.245,184.074 159.365 C 184.422 157.885,184.327 157.304,183.914 158.382 M193.099 161.554 C 193.229 162.430,193.482 163.416,193.662 163.745 C 193.850 164.088,193.889 163.663,193.753 162.749 C 193.624 161.873,193.370 160.886,193.190 160.558 C 193.003 160.215,192.964 160.639,193.099 161.554 M182.271 166.534 C 182.120 167.223,182.079 167.869,182.180 167.971 C 182.282 168.072,182.480 167.582,182.620 166.882 C 182.952 165.222,182.630 164.900,182.271 166.534 M248.275 169.522 C 248.268 169.960,248.417 170.677,248.606 171.116 C 249.042 172.131,249.042 171.083,248.606 169.721 C 248.349 168.920,248.284 168.881,248.275 169.522 M180.931 173.175 C 180.901 173.650,180.773 174.367,180.647 174.768 C 180.430 175.459,180.442 175.460,180.873 174.789 C 181.123 174.400,181.250 173.682,181.156 173.196 C 180.985 172.312,180.985 172.312,180.931 173.175 M149.651 174.950 C 149.319 176.611,149.641 176.933,150.000 175.299 C 150.151 174.610,150.192 173.964,150.090 173.862 C 149.989 173.761,149.791 174.250,149.651 174.950 M179.531 179.896 C 179.395 180.252,179.301 180.932,179.324 181.407 C 179.349 181.953,179.485 181.759,179.692 180.879 C 180.040 179.399,179.945 178.818,179.531 179.896 M197.468 183.267 C 197.783 184.985,198.010 185.309,198.002 184.031 C 197.999 183.501,197.819 182.799,197.604 182.470 C 197.328 182.050,197.288 182.286,197.468 183.267 M178.142 186.720 C 178.112 187.196,177.984 187.913,177.858 188.314 C 177.641 189.005,177.653 189.006,178.084 188.335 C 178.334 187.945,178.461 187.228,178.367 186.742 C 178.196 185.857,178.196 185.857,178.142 186.720 M198.811 190.073 C 198.814 190.603,198.993 191.305,199.209 191.633 C 199.484 192.054,199.525 191.818,199.345 190.837 C 199.029 189.118,198.803 188.794,198.811 190.073 M252.618 191.268 C 252.633 191.798,252.808 192.590,253.007 193.028 C 253.258 193.583,253.294 193.342,253.125 192.231 C 252.843 190.381,252.577 189.876,252.618 191.268 M176.742 193.442 C 176.606 193.798,176.512 194.478,176.535 194.953 C 176.561 195.499,176.696 195.305,176.903 194.425 C 177.251 192.944,177.156 192.364,176.742 193.442 M200.405 198.041 C 200.408 198.571,200.587 199.273,200.802 199.602 C 201.078 200.022,201.118 199.786,200.938 198.805 C 200.623 197.087,200.396 196.762,200.405 198.041 M175.348 200.199 C 175.315 200.637,175.196 201.444,175.083 201.992 L 174.878 202.988 175.305 202.011 C 175.539 201.473,175.658 200.666,175.569 200.218 C 175.411 199.423,175.406 199.423,175.348 200.199 M255.406 205.212 C 255.422 205.742,255.597 206.534,255.795 206.972 C 256.047 207.527,256.083 207.286,255.914 206.175 C 255.632 204.325,255.366 203.820,255.406 205.212 M173.954 206.988 C 173.817 207.344,173.724 208.024,173.746 208.499 C 173.772 209.045,173.907 208.851,174.114 207.971 C 174.462 206.490,174.367 205.910,173.954 206.988 M256.653 211.355 C 256.653 211.793,256.797 212.600,256.972 213.147 C 257.225 213.936,257.291 213.978,257.291 213.347 C 257.291 212.908,257.148 212.102,256.972 211.554 C 256.720 210.765,256.653 210.724,256.653 211.355 M172.559 213.745 C 172.526 214.183,172.407 214.990,172.294 215.538 L 172.089 216.534 172.516 215.557 C 172.751 215.019,172.870 214.212,172.781 213.764 C 172.623 212.969,172.617 212.969,172.559 213.745 M171.165 220.533 C 171.028 220.889,170.935 221.569,170.957 222.045 C 170.983 222.591,171.118 222.396,171.325 221.517 C 171.673 220.036,171.578 219.455,171.165 220.533 M205.835 225.100 C 206.150 226.818,206.377 227.142,206.368 225.863 C 206.365 225.334,206.186 224.631,205.971 224.303 C 205.695 223.882,205.655 224.119,205.835 225.100 M169.572 228.337 C 169.240 229.997,169.561 230.319,169.920 228.685 C 170.072 227.997,170.112 227.350,170.011 227.249 C 169.909 227.147,169.712 227.637,169.572 228.337 M207.239 231.873 C 207.259 232.908,207.887 234.608,207.900 233.665 C 207.907 233.227,207.758 232.510,207.570 232.072 C 207.360 231.584,207.232 231.506,207.239 231.873 M261.024 233.267 C 261.017 233.705,261.166 234.422,261.355 234.861 C 261.791 235.876,261.791 234.828,261.355 233.466 C 261.098 232.665,261.033 232.626,261.024 233.267 M168.176 235.259 C 168.143 235.697,168.024 236.504,167.912 237.052 L 167.707 238.048 168.133 237.070 C 168.368 236.533,168.487 235.726,168.398 235.278 C 168.240 234.483,168.234 234.483,168.176 235.259 M137.101 237.649 C 137.068 238.088,136.949 238.894,136.836 239.442 L 136.631 240.438 137.058 239.461 C 137.292 238.923,137.411 238.117,137.322 237.668 C 137.164 236.874,137.159 236.873,137.101 237.649 M262.578 241.069 C 262.593 241.599,262.768 242.390,262.967 242.829 C 263.218 243.384,263.254 243.143,263.085 242.032 C 262.803 240.182,262.537 239.677,262.578 241.069 M263.824 247.211 C 263.824 247.649,263.968 248.456,264.143 249.004 C 264.396 249.793,264.462 249.834,264.462 249.203 C 264.462 248.765,264.319 247.958,264.143 247.410 C 263.891 246.622,263.824 246.580,263.824 247.211 M165.587 248.023 C 165.450 248.379,165.357 249.059,165.379 249.535 C 165.405 250.081,165.541 249.886,165.747 249.007 C 166.095 247.526,166.001 246.945,165.587 248.023 M134.312 251.594 C 134.279 252.032,134.160 252.839,134.047 253.386 L 133.842 254.382 134.269 253.405 C 134.504 252.868,134.623 252.061,134.534 251.612 C 134.376 250.818,134.370 250.817,134.312 251.594 M265.367 255.013 C 265.382 255.543,265.557 256.335,265.756 256.773 C 266.007 257.328,266.043 257.087,265.874 255.976 C 265.592 254.126,265.326 253.621,265.367 255.013 M164.087 256.676 C 164.253 256.843,175.225 256.932,188.469 256.876 L 212.550 256.773 188.167 256.574 C 174.757 256.464,163.921 256.510,164.087 256.676 M266.613 261.155 C 266.613 261.594,266.757 262.400,266.932 262.948 C 267.185 263.737,267.251 263.778,267.251 263.147 C 267.251 262.709,267.108 261.902,266.932 261.355 C 266.680 260.566,266.613 260.524,266.613 261.155 M269.402 275.100 C 269.402 275.538,269.546 276.345,269.721 276.892 C 269.974 277.681,270.040 277.723,270.040 277.092 C 270.040 276.653,269.897 275.847,269.721 275.299 C 269.469 274.510,269.402 274.469,269.402 275.100 M128.536 280.528 C 128.204 282.189,128.526 282.510,128.884 280.876 C 129.036 280.188,129.076 279.541,128.975 279.440 C 128.873 279.338,128.676 279.828,128.536 280.528 M270.984 283.068 C 270.978 283.506,271.126 284.223,271.315 284.661 C 271.751 285.677,271.751 284.629,271.315 283.267 C 271.058 282.466,270.993 282.427,270.984 283.068 M157.110 287.069 C 156.980 287.407,156.985 287.796,157.122 287.932 C 157.259 288.069,157.371 287.883,157.371 287.519 C 157.371 286.909,159.762 286.849,187.948 286.753 L 218.526 286.648 187.936 286.551 C 160.674 286.465,157.320 286.521,157.110 287.069 M127.140 287.450 C 127.108 287.888,126.989 288.695,126.876 289.243 L 126.671 290.239 127.097 289.262 C 127.332 288.724,127.451 287.917,127.362 287.469 C 127.204 286.674,127.199 286.674,127.140 287.450 M218.588 288.645 C 218.722 289.522,218.897 290.314,218.977 290.405 C 219.279 290.747,219.053 288.613,218.706 287.849 C 218.455 287.293,218.419 287.535,218.588 288.645 M272.198 289.044 C 272.202 289.482,272.343 290.378,272.510 291.036 C 272.783 292.109,272.815 292.130,272.822 291.235 C 272.826 290.687,272.685 289.791,272.510 289.243 C 272.260 288.463,272.193 288.419,272.198 289.044 M125.747 294.472 C 125.415 296.133,125.737 296.455,126.096 294.821 C 126.247 294.132,126.288 293.485,126.186 293.384 C 126.085 293.282,125.887 293.772,125.747 294.472 M219.988 295.418 C 219.982 295.857,220.130 296.574,220.319 297.012 C 220.755 298.027,220.755 296.980,220.319 295.618 C 220.062 294.817,219.997 294.778,219.988 295.418 M273.773 297.012 C 273.766 297.450,273.915 298.167,274.104 298.606 C 274.540 299.621,274.540 298.573,274.104 297.211 C 273.847 296.410,273.782 296.371,273.773 297.012 M154.006 301.417 C 153.856 302.216,153.813 302.950,153.911 303.047 C 154.008 303.145,154.210 302.570,154.360 301.771 C 154.510 300.971,154.553 300.237,154.456 300.140 C 154.359 300.043,154.156 300.617,154.006 301.417 M124.352 301.394 C 124.319 301.833,124.200 302.639,124.087 303.187 L 123.882 304.183 124.309 303.206 C 124.543 302.668,124.662 301.862,124.573 301.413 C 124.415 300.619,124.410 300.618,124.352 301.394 M221.542 303.220 C 221.557 303.750,221.732 304.542,221.931 304.980 C 222.183 305.535,222.218 305.294,222.049 304.183 C 221.768 302.333,221.501 301.828,221.542 303.220 M274.987 302.988 C 274.991 303.426,275.132 304.323,275.299 304.980 C 275.572 306.054,275.604 306.074,275.610 305.179 C 275.614 304.631,275.474 303.735,275.299 303.187 C 275.049 302.407,274.981 302.364,274.987 302.988 M152.838 306.988 C 152.701 307.344,152.608 308.024,152.630 308.499 C 152.656 309.045,152.792 308.851,152.998 307.971 C 153.346 306.490,153.252 305.910,152.838 306.988 M222.789 309.363 C 222.789 309.801,222.932 310.608,223.108 311.155 C 223.360 311.944,223.427 311.986,223.427 311.355 C 223.427 310.916,223.283 310.110,223.108 309.562 C 222.855 308.773,222.789 308.732,222.789 309.363 M277.757 317.131 C 277.777 318.167,278.404 319.867,278.418 318.924 C 278.425 318.486,278.276 317.769,278.088 317.331 C 277.878 316.843,277.750 316.765,277.757 317.131 M149.850 321.315 C 149.817 321.753,149.698 322.560,149.585 323.108 L 149.380 324.104 149.807 323.126 C 150.041 322.589,150.160 321.782,150.071 321.333 C 149.913 320.539,149.908 320.538,149.850 321.315 M120.142 322.532 C 119.992 323.332,119.949 324.065,120.046 324.163 C 120.143 324.260,120.346 323.686,120.496 322.886 C 120.646 322.087,120.689 321.353,120.591 321.255 C 120.494 321.158,120.292 321.733,120.142 322.532 M225.577 323.307 C 225.577 323.745,225.721 324.552,225.896 325.100 C 226.149 325.888,226.215 325.930,226.215 325.299 C 226.215 324.861,226.072 324.054,225.896 323.506 C 225.644 322.717,225.577 322.676,225.577 323.307 M279.362 324.900 C 279.362 325.339,279.506 326.145,279.681 326.693 C 279.934 327.482,280.000 327.523,280.000 326.892 C 280.000 326.454,279.857 325.647,279.681 325.100 C 279.429 324.311,279.362 324.269,279.362 324.900 M148.406 328.287 C 148.255 328.976,148.214 329.622,148.316 329.724 C 148.417 329.825,148.615 329.335,148.755 328.635 C 149.087 326.975,148.765 326.653,148.406 328.287 M280.546 331.076 C 280.566 332.111,281.193 333.811,281.207 332.869 C 281.214 332.430,281.065 331.713,280.876 331.275 C 280.667 330.787,280.539 330.710,280.546 331.076 M117.359 335.686 C 117.213 336.270,117.170 336.824,117.263 336.918 C 117.357 337.012,117.554 336.611,117.701 336.027 C 117.847 335.443,117.890 334.889,117.796 334.795 C 117.702 334.701,117.506 335.102,117.359 335.686 M146.722 337.849 C 146.722 338.835,146.800 339.238,146.895 338.745 C 146.990 338.252,146.990 337.445,146.895 336.952 C 146.800 336.459,146.722 336.863,146.722 337.849 M228.414 340.239 C 228.414 341.663,228.487 342.246,228.575 341.534 C 228.663 340.822,228.663 339.656,228.575 338.944 C 228.487 338.232,228.414 338.815,228.414 340.239 M282.139 338.446 C 282.133 338.884,282.282 339.602,282.470 340.040 C 282.906 341.055,282.906 340.008,282.470 338.645 C 282.214 337.845,282.149 337.806,282.139 338.446 M283.484 343.526 C 283.633 344.019,283.919 344.598,284.119 344.812 C 284.320 345.026,284.282 344.622,284.036 343.915 C 283.531 342.468,283.065 342.139,283.484 343.526 M153.187 349.801 C 154.709 351.335,156.044 352.590,156.154 352.590 C 156.263 352.590,155.108 351.335,153.586 349.801 C 152.064 348.267,150.729 347.012,150.619 347.012 C 150.509 347.012,151.665 348.267,153.187 349.801 M109.947 349.701 L 107.769 351.992 110.060 349.814 C 112.188 347.791,112.533 347.410,112.237 347.410 C 112.175 347.410,111.144 348.441,109.947 349.701 M290.438 352.581 C 291.205 353.274,292.191 354.029,292.629 354.260 C 293.687 354.816,293.032 354.219,290.837 352.625 L 289.044 351.322 290.438 352.581 M100.551 363.546 C 100.551 366.175,100.616 367.199,100.694 365.821 C 100.772 364.443,100.771 362.292,100.692 361.040 C 100.614 359.789,100.550 360.916,100.551 363.546 M163.908 368.327 C 163.908 372.052,163.967 373.629,164.041 371.832 C 164.115 370.035,164.115 366.987,164.042 365.059 C 163.969 363.131,163.908 364.602,163.908 368.327 " stroke="none" fill="#9684b4" fill-rule="evenodd"></path></g></svg>