<?xml version="1.0" standalone="no"?>
<!DOCTYPE svg PUBLIC "-//W3C//DTD SVG 20010904//EN"
 "http://www.w3.org/TR/2001/REC-SVG-20010904/DTD/svg10.dtd">
<svg version="1.0" xmlns="http://www.w3.org/2000/svg"
 width="625.000000pt" height="138.000000pt" viewBox="0 0 625.000000 138.000000"
 preserveAspectRatio="xMidYMid meet">

<g transform="translate(0.000000,138.000000) scale(0.100000,-0.100000)"
fill="#000000" stroke="none">
<path d="M0 690 l0 -690 3125 0 3125 0 0 690 0 690 -3125 0 -3125 0 0 -690z
m2263 350 l37 0 0 -90 c0 -88 -1 -90 -23 -90 -20 0 -26 9 -40 60 -13 46 -23
63 -43 72 -37 17 -68 -16 -66 -72 2 -53 10 -66 88 -153 92 -101 118 -154 118
-242 0 -56 -5 -79 -24 -113 -35 -63 -78 -86 -143 -78 -29 4 -67 6 -84 6 l-33
-1 0 101 c0 98 1 101 22 98 17 -2 24 -14 33 -53 15 -68 30 -92 60 -99 51 -13
85 25 85 94 0 59 -19 96 -94 180 -37 41 -76 92 -87 112 -44 85 -33 186 27 246
32 32 37 34 82 28 26 -4 64 -6 85 -6z m2907 -5 c38 -20 64 -58 91 -135 30 -88
33 -312 5 -405 -34 -113 -84 -165 -159 -165 -112 0 -174 103 -184 305 -12 254
57 415 179 415 21 0 52 -7 68 -15z m455 2 c30 -2 30 -3 33 -67 4 -82 -3 -110
-27 -110 -15 0 -23 13 -36 55 -10 35 -24 60 -40 71 -28 18 -60 11 -75 -16 -28
-52 -35 -417 -10 -512 14 -56 40 -83 69 -73 18 6 21 15 22 73 2 99 -1 114 -24
132 -33 27 -12 40 64 40 l69 0 2 -110 c1 -60 2 -120 2 -132 1 -29 -41 -50
-111 -56 -70 -6 -96 2 -143 44 -30 28 -45 52 -60 102 -49 159 -24 395 55 502
41 56 73 72 130 65 28 -3 64 -6 80 -8z m-4827 -44 c6 -27 34 -167 63 -313 37
-189 57 -271 70 -286 11 -11 19 -28 19 -37 0 -15 -12 -17 -90 -17 -84 0 -90 1
-90 20 0 11 7 23 15 26 16 7 19 36 9 97 l-7 37 -57 0 -57 0 -11 -52 c-9 -46
-8 -55 10 -79 11 -15 17 -32 14 -38 -4 -6 -34 -11 -67 -11 -56 0 -59 1 -59 25
0 14 4 25 9 25 5 0 14 15 20 33 20 65 104 503 103 540 -1 33 3 39 36 57 53 28
59 25 70 -27z m361 -133 l66 -175 3 144 c2 118 0 147 -13 161 -8 9 -15 24 -15
33 0 14 11 17 65 17 57 0 65 -2 65 -19 0 -10 -7 -24 -15 -31 -13 -11 -15 -60
-15 -332 l0 -319 -27 3 c-25 3 -32 17 -117 242 l-91 238 -3 -202 c-2 -168 0
-207 13 -226 29 -44 21 -54 -44 -54 -67 0 -80 10 -57 45 23 35 24 567 2 611
-8 15 -13 31 -10 36 3 5 33 8 66 6 l61 -3 66 -175z m501 105 c0 -72 -1 -75
-23 -75 -19 0 -25 8 -35 44 -12 45 -27 56 -84 56 l-28 0 0 -131 c0 -129 0
-130 22 -127 15 2 25 13 32 36 7 24 14 32 32 32 24 0 24 -2 24 -95 0 -94 0
-95 -24 -95 -18 0 -26 7 -31 27 -7 29 -21 43 -42 43 -10 0 -13 -36 -13 -145
l0 -145 36 0 c52 0 70 14 89 70 14 43 21 51 38 48 20 -3 22 -10 25 -86 l3 -82
-166 0 c-155 0 -165 1 -165 19 0 10 7 24 15 31 13 11 15 57 15 300 0 243 -2
289 -15 300 -8 7 -15 21 -15 31 0 18 10 19 155 19 l155 0 0 -75z m340 -1 c0
-72 -1 -75 -22 -72 -16 2 -24 13 -31 38 -11 45 -31 60 -79 60 l-38 0 0 -130
c0 -124 1 -130 21 -130 13 0 25 11 35 35 9 23 21 35 34 35 19 0 20 -7 20 -95
0 -89 -1 -95 -20 -95 -13 0 -24 10 -31 27 -11 29 -26 43 -46 43 -10 0 -13 -36
-13 -145 l0 -145 40 0 c49 0 75 23 90 79 9 34 15 41 35 41 25 0 25 -1 25 -85
l0 -85 -159 0 c-100 0 -162 4 -166 10 -4 6 0 22 9 35 23 35 24 567 2 611 -8
15 -13 31 -10 36 3 4 72 8 155 8 l149 0 0 -76z m530 59 c0 -10 -7 -27 -15 -37
-11 -15 -15 -49 -15 -133 l0 -113 50 0 50 0 0 119 c0 93 -3 121 -15 131 -8 7
-15 21 -15 31 0 17 9 19 85 19 76 0 85 -2 85 -19 0 -10 -7 -24 -15 -31 -13
-11 -15 -57 -15 -300 0 -243 2 -289 15 -300 8 -7 15 -21 15 -31 0 -17 -9 -19
-85 -19 -76 0 -85 2 -85 19 0 10 7 24 15 31 12 10 15 40 15 151 l0 139 -50 0
-50 0 0 -133 c0 -102 3 -138 15 -153 8 -10 15 -27 15 -36 0 -16 -10 -18 -79
-18 -44 0 -82 4 -85 8 -3 5 2 21 10 36 22 44 21 576 -2 611 -9 13 -13 29 -9
35 3 5 41 10 86 10 69 0 79 -2 79 -17z m608 -2 c50 -26 87 -66 111 -122 56
-125 45 -356 -22 -474 -35 -63 -89 -85 -209 -85 -98 0 -98 0 -98 25 0 14 5 25
10 25 6 0 10 107 10 300 0 193 -4 300 -10 300 -5 0 -10 11 -10 25 0 25 1 25
90 25 70 0 99 -4 128 -19z m492 -56 c0 -72 -1 -75 -24 -75 -19 0 -25 7 -30 35
-9 47 -30 65 -77 65 l-39 0 0 -131 c0 -129 0 -130 22 -127 15 2 25 13 32 36 7
24 14 32 32 32 24 0 24 -2 24 -95 0 -94 0 -95 -24 -95 -18 0 -26 7 -31 27 -7
29 -21 43 -42 43 -10 0 -13 -36 -13 -145 l0 -145 36 0 c52 0 70 14 89 70 14
43 21 51 38 48 20 -3 22 -10 25 -86 l3 -82 -166 0 c-155 0 -165 1 -165 19 0
10 7 24 15 31 13 11 15 57 15 300 0 243 -2 289 -15 300 -8 7 -15 21 -15 31 0
18 10 19 155 19 l155 0 0 -75z m200 50 c0 -14 -4 -25 -10 -25 -5 0 -10 -10
-10 -22 -1 -29 53 -319 57 -314 2 2 17 72 33 157 l30 153 -20 21 c-39 42 -28
55 50 55 63 0 70 -2 70 -20 0 -11 -8 -28 -19 -39 -12 -12 -25 -56 -39 -127
-11 -60 -37 -194 -57 -299 -44 -235 -42 -227 -68 -223 -20 3 -26 27 -83 314
-48 243 -66 318 -84 342 -12 16 -19 35 -16 41 4 6 40 11 87 11 78 0 79 0 79
-25z m618 11 c15 -8 39 -27 55 -43 72 -76 52 -207 -41 -269 l-32 -22 29 -12
c85 -35 123 -137 86 -227 -37 -87 -89 -112 -232 -113 -94 0 -103 2 -103 19 0
10 7 24 15 31 22 19 22 581 0 600 -8 7 -15 21 -15 31 0 17 9 19 105 19 72 0
115 -5 133 -14z m307 4 c4 -6 0 -22 -9 -35 -13 -19 -16 -71 -18 -314 l-3 -291
28 0 c36 0 74 38 82 84 6 29 12 36 31 36 23 0 24 -2 24 -85 l0 -85 -150 0
c-126 0 -152 2 -157 15 -3 9 2 24 11 33 13 16 16 57 16 307 1 195 -2 291 -9
293 -6 2 -11 15 -11 28 0 23 2 24 79 24 45 0 83 -5 86 -10z m945 -805 l0 -25
-2575 0 -2575 0 0 25 0 25 2575 0 2575 0 0 -25z"/>
<path d="M5076 981 c-25 -27 -39 -192 -34 -381 5 -155 15 -203 45 -214 13 -5
53 9 53 18 0 2 4 25 9 52 5 27 12 114 16 194 12 260 -26 401 -89 331z"/>
<path d="M712 705 c-7 -36 -15 -78 -18 -95 -6 -30 -6 -30 36 -30 42 0 42 0 36
30 -3 17 -11 59 -18 95 -6 36 -14 65 -18 65 -4 0 -12 -29 -18 -65z"/>
<path d="M3060 699 c0 -159 0 -292 1 -296 1 -13 42 -4 60 13 10 9 23 40 29 70
12 57 15 332 5 380 -14 62 -37 103 -66 113 l-29 10 0 -290z"/>
<path d="M4350 856 c0 -75 2 -136 5 -136 4 0 19 7 34 15 22 11 32 26 41 64 21
89 -4 170 -57 186 l-23 6 0 -135z"/>
<path d="M4350 531 c0 -78 2 -141 5 -141 3 0 21 6 40 14 26 11 36 23 44 53 28
99 -1 187 -66 207 l-23 7 0 -140z"/>
</g>
</svg>
