<?xml version="1.0" standalone="no"?>
<!DOCTYPE svg PUBLIC "-//W3C//DTD SVG 20010904//EN"
 "http://www.w3.org/TR/2001/REC-SVG-20010904/DTD/svg10.dtd">
<svg version="1.0" xmlns="http://www.w3.org/2000/svg"
 width="726.000000pt" height="751.000000pt" viewBox="0 0 726.000000 751.000000"
 preserveAspectRatio="xMidYMid meet">

<g transform="translate(0.000000,751.000000) scale(0.100000,-0.100000)"
fill="#000000" stroke="none">
<path d="M3480 7364 c-160 -11 -318 -28 -425 -46 -1474 -248 -2633 -1391
-2904 -2863 -74 -404 -74 -876 0 -1280 163 -887 652 -1674 1374 -2211 107 -79
273 -190 301 -201 11 -4 14 12 14 87 0 118 13 146 95 204 99 71 156 146 194
260 11 31 241 1162 512 2514 440 2201 490 2463 485 2517 -4 33 -17 134 -30
225 -15 112 -20 172 -13 186 5 12 25 31 46 42 49 27 677 321 720 337 41 15 80
5 99 -25 7 -11 267 -1295 578 -2852 311 -1558 574 -2873 586 -2923 39 -166 71
-215 204 -305 39 -27 83 -63 98 -80 23 -28 26 -40 26 -112 0 -94 -8 -93 117
-12 826 532 1394 1381 1572 2349 74 404 74 876 0 1280 -286 1555 -1570 2741
-3134 2894 -113 11 -432 21 -515 15z"/>
<path d="M3388 4755 c-20 -99 -115 -565 -212 -1035 -96 -470 -178 -872 -181
-892 l-7 -38 431 0 c338 0 431 3 431 13 -1 6 -97 489 -213 1072 l-213 1060
-36 -180z"/>
<path d="M2772 1803 c-51 -247 -93 -464 -92 -483 1 -77 55 -152 208 -292 90
-82 105 -121 100 -262 -4 -112 -14 -146 -48 -163 -8 -5 -188 -10 -400 -13
l-385 -5 155 -62 c457 -181 845 -256 1330 -256 485 0 873 75 1330 256 l155 62
-615 5 c-338 3 -616 7 -617 8 -44 47 -43 40 -43 182 0 126 2 140 23 171 12 19
45 48 72 66 97 62 130 89 160 131 26 39 30 53 33 126 3 71 -7 136 -82 506 -47
234 -88 435 -91 448 l-5 22 -548 0 -547 0 -93 -447z"/>
</g>
</svg>
